# Blender v2.78 (sub 0) OBJ File: 'shopstore_room.blend'
# www.blender.org
mtllib lowerwall.mtl
o Lower_wall_Cube.013
v 4.180207 0.115923 -5.374931
v 4.180207 2.115923 -5.374931
v 4.180207 0.115923 -5.774931
v 4.180207 2.115923 -5.774931
v 12.789179 0.115923 -5.374931
v 12.789179 2.115923 -5.374931
v 12.789179 0.115923 -5.774931
v 12.789179 2.115923 -5.774931
v 11.497833 0.115923 -5.774931
v 11.497833 2.115923 -5.774931
v 11.497833 0.115923 -5.374931
v 11.497833 2.115923 -5.374931
v 5.476961 0.115923 -5.774931
v 5.476961 2.115923 -5.374931
v 5.476961 2.115923 -5.774931
v 5.476961 0.115923 -5.374931
v 4.180207 1.615923 -5.374931
v 4.180207 1.615923 -5.774931
v 12.789179 1.615923 -5.774931
v 12.789179 1.615923 -5.374931
v 11.497833 1.615923 -5.374931
v 5.476961 1.615923 -5.374931
v 4.180207 0.640923 -5.774931
v 12.789179 0.640923 -5.774931
v 12.789179 0.640923 -5.374931
v 11.497833 0.640923 -5.374931
v 5.476961 0.640923 -5.374931
v 4.180207 0.640923 -5.374931
v 11.497833 1.615923 -5.563174
v 5.476961 1.615923 -5.563174
v 11.497833 0.640923 -5.563174
v 5.476961 0.640923 -5.563174
vt 0.7018 0.8730
vt 0.7057 0.8723
vt 0.7083 0.8749
vt 0.7031 0.8769
vt 0.7038 0.8046
vt 0.7083 0.8059
vt 0.7064 0.8085
vt 0.7031 0.8079
vt 0.7038 0.8627
vt 0.7077 0.8627
vt 0.6862 0.8169
vt 0.6888 0.8053
vt 0.6914 0.8079
vt 0.6895 0.8169
vt 0.7109 0.8633
vt 0.7109 0.8162
vt 0.7077 0.8162
vt 0.6862 0.8640
vt 0.6895 0.8640
vt 0.7038 0.8169
vt 0.6888 0.8743
vt 0.6908 0.8717
vt 0.6934 0.8175
vt 0.7025 0.8188
vt 0.6953 0.8188
vt 0.6953 0.8072
vt 0.6934 0.8633
vt 0.6940 0.8730
vt 0.6947 0.8034
vt 0.6934 0.8756
vt 0.7018 0.8614
vt 0.6953 0.8614
vn -1.0000 0.0000 0.0000
vn 1.0000 0.0000 0.0000
vn 0.0000 0.0000 1.0000
vn 0.0000 -1.0000 0.0000
vn 0.0000 1.0000 0.0000
usemtl Material
s off
f 17/1/1 2/2/1 4/3/1 18/4/1
f 19/5/2 8/6/2 6/7/2 20/8/2
f 22/9/3 14/10/3 2/2/3 17/1/3
f 9/11/4 7/12/4 5/13/4 11/14/4
f 15/15/5 4/3/5 2/2/5 14/10/5
f 8/6/5 10/16/5 12/17/5 6/7/5
f 13/18/4 9/11/4 11/14/4 16/19/4
f 20/8/3 6/7/3 12/17/3 21/20/3
f 3/21/4 13/18/4 16/19/4 1/22/4
f 10/16/5 15/15/5 14/10/5 12/17/5
f 21/20/3 12/17/3 14/10/3 22/9/3
f 26/23/1 21/20/1 29/24/1 31/25/1
f 25/26/3 20/8/3 21/20/3 26/23/3
f 27/27/3 22/9/3 17/1/3 28/28/3
f 24/29/2 19/5/2 20/8/2 25/26/2
f 28/28/1 17/1/1 18/4/1 23/30/1
f 1/22/1 28/28/1 23/30/1 3/21/1
f 7/12/2 24/29/2 25/26/2 5/13/2
f 16/19/3 27/27/3 28/28/3 1/22/3
f 5/13/3 25/26/3 26/23/3 11/14/3
f 11/14/3 26/23/3 27/27/3 16/19/3
f 31/25/3 29/24/3 30/31/3 32/32/3
f 27/27/5 26/23/5 31/25/5 32/32/5
f 21/20/4 22/9/4 30/31/4 29/24/4
f 22/9/2 27/27/2 32/32/2 30/31/2
